<?xml version="1.0" encoding="UTF-8"?>
<svg xmlns="http://www.w3.org/2000/svg" viewBox="0 0 899 1599">
  <defs>
    <style>
      .cls-1 {
        stroke-width: 2px;
      }

      .cls-1, .cls-2 {
        fill: none;
        stroke: #000;
        stroke-miterlimit: 10;
      }
    </style>
  </defs>
  <g id="Calque_2" data-name="Calque 2">
    <path class="cls-1" d="M362.74,589.06c.07,0,.14,0,.21,0-.31-2.68,2.03-5.1,4.64-5.79s5.37-.06,7.97.68c5.24,1.5,10.34,3.49,15.22,5.92,5.9,2.94,11.97,6.64,18.52,6.02,4.07-.39,7.77-2.42,11.41-4.27,6.43-3.27,13.18-6.11,20.3-7.25,2.27-.36,4.69-.53,6.77.45s3.61,3.44,2.82,5.6c4.03.14,8.59.53,11.13,3.67,2.04,2.51,2.13,6.03,2.12,9.27-.05,16.2-.09,32.39-.14,48.59,0,1.65-.04,3.41-.96,4.78-.99,1.48-2.78,2.17-4.47,2.73-4.23,1.41-8.54,2.56-12.85,3.7-11.56,3.07-23.12,6.14-34.68,9.22-1.59.42-3.2.85-4.85.81-1.52-.04-3-.48-4.46-.91-12.38-3.7-24.75-7.4-37.13-11.1-3.67-1.1-7.91-2.1-11.12-4.28-2.84-1.93-3.22-5.45-3.22-8.7.01-15.17.03-30.35.04-45.52,0-3.79.18-8.01,2.86-10.69,2.49-2.48,6.33-2.8,9.85-2.93Z"/>
    <path class="cls-1" d="M368.25,591.21c1.41,1.13,4.1,2.05,4.76,2.34,3.44,1.52,6.88,3.02,10.33,4.5,6.9,2.96,13.84,5.85,20.81,8.66.82.33,1.65.66,2.53.71,1.07.05,2.11-.33,3.12-.7,11.15-4.13,22.29-8.26,33.44-12.38,1.01-.37,2.05-.77,2.83-1.52s1.21-1.96.75-2.93c-.41-.86-1.42-1.31-2.37-1.33s-1.88.31-2.78.63c-10.45,3.77-20.91,7.53-31.36,11.3-.73.26-1.47.53-2.24.51-.72-.02-1.41-.28-2.07-.55-11.36-4.47-22.62-9.44-34.58-11.92-1.04-.22-2.2-.39-3.1.16-1.39.85-1.04,1.74-.06,2.53Z"/>
    <path class="cls-1" d="M355.49,597.95c-.01.28-.01.56-.01.83-.02,15.43-.03,30.87-.05,46.3,0,1.9-.27,4.52.53,6.3.73,1.64,2.82,1.83,4.39,2.34,4.78,1.55,9.58,3.07,14.39,4.54,9.42,2.89,18.88,5.62,28.39,8.21,1.38.38,2.78.75,4.22.76,1.46.01,2.89-.35,4.3-.71,12.45-3.19,24.9-6.38,37.35-9.58,3.47-.89,7.33-2.07,9.04-5.21,1.11-2.03,1.06-4.47.99-6.79-.36-13.32-.3-26.66.17-39.98.13-3.57-.2-7.97-3.45-9.45-2.19-1-4.74-.12-6.99.76-12.88,5.07-25.76,10.14-38.65,15.21-1.02.4-2.07.81-3.16.79-1.04-.02-2.04-.42-3-.81-13.22-5.38-26.43-10.76-39.65-16.15-1.48-.6-3-1.21-4.59-1.21s-3.29.77-3.92,2.24c-.21.5-.29,1.04-.31,1.59Z"/>
    <polygon class="cls-1" points="416.17 614.74 416.17 634.28 454.66 621.83 454.66 601.53 416.17 614.74"/>
    <polygon class="cls-1" points="421.34 617.9 421.34 627.38 449.5 617.9 449.5 608.43 421.34 617.9"/>
    <polygon class="cls-1" points="416.17 638.11 416.17 643.28 454.66 630.88 454.66 626.04 416.17 638.11"/>
    <polygon class="cls-1" points="416.17 647.68 416.17 653.43 454.66 640.02 454.66 635.43 416.17 647.68"/>
  </g>
  <g id="Calque_3" data-name="Calque 3">
    <path class="cls-1" d="M562.28,889.4l7.28-.77,2.04-66.89,23.87,68.3h4.6s-7.91-69.87-1.4-81.98c-3.32.15-8.3,0-8.3,0l1.79,50.7-20.94-54.26-5.87,4.72s4.21,66.77-3.06,80.17Z"/>
    <path class="cls-1" d="M515.71,834.22c-1.65.52-3.24,1.27-4.71,2.18-2.8,1.74-5.26,4.13-6.67,7.11-1.7,3.61-1.75,7.82-.89,11.71,1.05,4.78,3.2,9.59,5.5,13.9,1.97,3.69,4.59,7.58,8.83,8.8,4.36,1.26,8.94-.75,12.92-2.92,4.48-2.44,9.1-5.49,10.9-10.26,1.65-4.38.57-9.3-1.05-13.69-1.54-4.15-3.58-8.18-6.59-11.43s-7.05-5.68-11.45-6.15c-2.29-.24-4.59.06-6.79.75Z"/>
    <path class="cls-1" d="M485.36,809.93s-.08.03-.12.04c.95,2.71,1.9,5.42,2.84,8.13,10.12-2.95,20.25-5.89,30.37-8.84,2.21-.64,4.46-1.29,6.76-1.36s4.72.53,6.42,2.08c2.7,2.47,2.95,6.54,3.63,10.13,1.14,5.99,3.98,11.74,3.75,17.83-4.32-7.18-12.59-11.81-20.97-11.74s-16.57,4.84-20.77,12.09c-2.87,4.95-3.9,10.82-3.62,16.53.55,11.23,4.89,24.63,16.42,28.86,5.64,2.06,11.97,1.5,17.66-.38s10.89-5.01,16.03-8.11c.8,3.14,1.61,6.27,2.41,9.41.15.57.31,1.17.76,1.56,1.53,1.3,4.45.8,6.26.64,1.04-.09,2.52-.03,3.5-.4,1.83-.69,1.11-1.3.6-3.36-1.9-7.7-3.77-15.4-5.66-23.1-3.74-15.25-7.47-30.49-11.21-45.74-.64-2.61-1.33-5.33-3.11-7.34-2.3-2.6-5.94-3.52-9.39-3.9-6.53-.72-13.13-.02-19.6,1.1-7.79,1.35-15.48,3.32-22.97,5.89Z"/>
    <path class="cls-1" d="M453.59,808.92c-1.76.73-3.26,2.01-4.54,3.42-3.33,3.66-5.41,8.34-6.59,13.14s-1.53,9.78-1.75,14.73c-.34,7.71-.38,15.52,1.11,23.12,1.19,6.08,3.79,14.72,9.96,17.62,4.43,2.08,9.94-.07,13.1-3.8s4.43-8.68,5.29-13.5c2-11.22,2.23-22.7,1.39-34.06-.33-4.38-.91-8.98-2.82-12.98-2.54-5.32-8.86-10.17-14.98-7.76-.06.02-.11.04-.17.07Z"/>
    <path class="cls-1" d="M448.59,802.78c-2.46,1.17-4.62,2.97-6.35,5.08-2.41,2.95-4.01,6.5-5.1,10.16-2.54,8.52-2.39,17.58-2.15,26.46.37,13.48-.25,35.75,15.35,41.12,4.32,1.49,9.19,1.34,13.42-.41,5.85-2.42,10.18-7.7,12.58-13.55,2.4-5.85,3.06-12.27,3.21-18.6.19-8.09-.43-16.2-1.84-24.17-1.23-6.95-3.16-14-7.53-19.54s-11.66-9.25-18.53-7.64c-1.06.25-2.07.61-3.05,1.08Z"/>
    <path class="cls-1" d="M412.02,801.96s10.6,86.17,1.4,102.38c10.21.89,60.64,1.02,60.64,1.02v-12.51l-47.36,7.79s-8.43-65.62.13-100.09c-3.06.26-14.81,1.4-14.81,1.4Z"/>
    <path class="cls-1" d="M363,806.68h8.43l.89,33.06,18.51-37.15,7.91,4.72-21.45,31.28,28.34,38.68-4.21,4.72-24.77-39.7h-2.68l-1.28,1.66.51,41.74h-8.17s4.98-62.55-2.04-79.02Z"/>
    <path class="cls-1" d="M328.09,801.09c1.66-.72,3.56-1.12,5.73-1.09,3.88.05,7.8.91,11.18,2.82,6.28,3.55,10.11,10.36,12.06,17.3,2.45,8.71,2.43,17.9,2.21,26.94-.19,8-.55,16.2-3.61,23.6-2.32,5.6-6.39,10.74-11.99,13.06-4.04,1.67-8.72,1.75-12.82.22-7.18-2.68-10.32-9.16-12.47-16.03-2.48-7.92-3.68-16.21-4.04-24.49-.33-7.52.08-15.38,1.94-22.8,1.85-7.42,4.72-16.46,11.81-19.54Z"/>
    <path class="cls-1" d="M333.46,807.14c.19-.08.38-.16.57-.24,4.19-1.55,9.04.56,11.96,3.94,2.81,3.25,4.24,7.49,4.87,11.74,1.13,7.65.82,15.82,1.05,23.55.29,9.79.6,31.77-13.04,33.53-3.06.4-5.99-.78-8.64-2.18-3-1.59-3.85-4.34-4.84-7.38-4.27-13.03-6.54-27.1-4.13-40.73,1.3-7.33,4.75-18.86,12.2-22.25Z"/>
    <path class="cls-1" d="M276.23,800.22c.82-.22,1.66-.38,2.5-.48,7.3-.91,14.9,2.1,19.86,7.54,4.23,4.64,6.54,10.77,7.59,16.97s.93,12.52.86,18.8c-.09,8.32-.1,16.79-2.51,24.76-1.34,4.43-3.5,8.76-7.01,11.78-4.19,3.62-10.1,5.05-15.53,3.98-17.91-3.54-18.39-24.86-18.86-39.25-.4-12.23-1.42-25.14,4.15-36.04,1.33-2.59,3.07-5.07,5.54-6.61,1.05-.66,2.21-1.13,3.41-1.45Z"/>
    <path class="cls-1" d="M280.97,806.95c-2.38,1.13-4.43,3.09-6.02,5.24-4.22,5.72-6.01,12.89-6.81,19.95-1.02,8.95-.58,18.09,1.51,26.87,1.79,7.54,4.44,17.48,12.86,19.98,3.43,1.02,7.36.45,10.2-1.73,4.54-3.48,5.44-9.86,5.96-15.56,1.22-13.3,2.36-26.82-.2-39.92-.73-3.74-1.8-7.51-4.04-10.59s-5.85-5.38-9.65-5.21c-1.33.06-2.6.41-3.79.98Z"/>
    <path class="cls-2" d="M214.61,845.61c.17.04-.57,13.04-.56,14.26,0,4.86.3,9.73,1.22,14.51.81,4.22,1.83,8.86,4.73,12.15s7.05,4.96,11.28,5.49c2.35.29,4.81.25,6.98-.71,2.77-1.22,4.74-3.82,5.89-6.63s1.57-5.84,2.04-8.84c.79-5.07,1.72-10.28.61-15.29-.7-3.14-2.31-6.22-5-7.99-1.85-1.21-4.06-1.72-6.22-2.21-6.99-1.58-13.98-3.17-20.96-4.75Z"/>
    <path class="cls-2" d="M214.94,839.18c.83.5,2.21.11,3.28.03,3.31-.26,6.62-.62,9.85-1.45,4.39-1.13,8.66-3.17,11.75-6.49s4.86-8.04,3.95-12.48c-.92-4.53-4.4-8.16-8.27-10.68-2.78-1.81-5.83-3.2-9.03-4.1-1.81-.51-3.76-.86-5.54-.25-3.56,1.22-4.81,5.57-5.29,9.3-.89,6.83-.95,13.73-1.02,20.61-.01,1.02-.62,4.35-.07,5.15.11.16.24.28.39.37Z"/>
    <path class="cls-1" d="M214.43,900.97c.14.04.28.02.41-.07.44-.27.64-.8.81-1.29.78-2.26,1.45-4.56,1.99-6.89,5.24,3.48,10.92,7.09,17.2,6.93,7.89-.2,14.53-6.52,17.76-13.72s3.82-15.26,4.82-23.09c.34-2.68.74-5.39.48-8.08s-1.29-5.42-3.34-7.18c-1.81-1.55-4.2-2.2-6.53-2.69-8.77-1.86-17.79-2.16-26.76-2.16,6.17-2,12.66-3.05,18.6-5.65s11.51-7.19,13.06-13.49c1.84-7.46-2.62-15.42-9.04-19.64s-14.38-5.37-22.06-5.59c-2.8-.08-5.61-.05-8.41.09-1.3.06-2.65.17-3.79.79-1.89,1.04-2.8,3.34-2.82,5.5s.68,4.25,1.26,6.33c4.07,14.47,2.82,29.83,1.82,44.83-.52,7.82-.94,15.67-.5,23.5.12,2.13,2.61,20.87,5.02,21.56Z"/>
    <path class="cls-1" d="M404.55,716.32c.7.71,1.61.36,3.12,0,2.61-.63,5.21-1.27,7.82-1.9.22-.05.45-.12.57-.31.09-.14.09-.3.09-.46.02-4.21.04-8.41.06-12.62,0-.98,0-1.98-.22-2.93-.81-3.45-4.98-5.67-8.3-4.42-1.19.45-2.25,1.29-2.84,2.41-.64,1.2-.72,2.62-.78,3.98-.16,3.45-.32,6.9-.27,10.35.02,1.37-.34,3.94.26,5.18.15.32.31.55.48.73Z"/>
  </g>
  <g id="Calque_4" data-name="Calque 4">
    <path class="cls-1" d="M346.28,763.34s38.3.77,38.3.77c5.17-3.64,10.64-6.98,16.28-9.85,3.64-1.85,7.59-3.79,11.68-4.38,6.04-.88,11.84-.65,17.84-2.49,6.95-2.13,11.33-5.92,16.44-10.85,5.73-5.54,16.97-17.37,17.02-17.43,1.23-1.29.73-5.6-.05-6.93-2.82-4.82-8.19-1.24-11.26,1.3-4.74,3.92-9.1,8.38-13.6,12.57-1.73,1.6-3.43,3.65-5.37,5-4.52,3.13-10.96,5.58-16.33,6.71-2.22.46-1.11-4.12-.05-4.91,1.12-.83,2.93-1.26,4.2-1.81l7.25-3.12s5.74-.77,6.8-7.47c.48-5.54,6.2-22.34,6.22-22.4,1-2.94.85-9.15-1.96-11.04-1.16-.78-2.53-.71-3.83-.42-2.88.65-4.05,1.68-4.83,4.44-1.71,6.06-3.43,12.12-5.14,18.18-1.26,4.46-1.69,7.43-6.45,8.73-1.88.51-3.85.83-5.7,1.44-3.27,1.08-6.55,2.18-9.67,3.65-2.32,1.09-4.06,2.62-6.61,2.71s-5.23.1-7.68-.58c-7.86-2.19-9.29-11.4-9.68-18.38-.08-1.37-.11-2.75-.11-4.13,0-3.63.25-7.63-1.15-11.06-1.41-3.47-4.79-3.69-7.76-2.06-4.31,2.35-3.86,5.39-3.81,9.84.07,6.65.03,12.15-5.85,16.31-3.28,2.31-5.96,4.85-7.43,8.7-1.3,3.41-1.17,6.76-1.42,10.32-.29,4.17-2.46,8.63-4.11,12.46-2.12,4.94-1.78,10.88-2.17,16.2Z"/>
    <path class="cls-1" d="M342.06,768.31c.5.59,1.29.62,2.83.66,2.69.07,5.38.11,8.07.17,10.29.22,20.58.44,30.87.65,1.29.03,2.62.05,3.81-.47,1.01-.44,1.81-1.22,2.62-1.96,9.82-9.07,22.9-14.53,36.26-15.14,3.85-.18,7.89,0,11.35-1.7,2.26-1.11,4.07-2.93,5.85-4.72,7.45-7.53,14.9-15.05,22.35-22.58.79-.8,1.6-1.62,2.06-2.64.4-.87.52-1.83.62-2.78.28-2.78.31-5.71-.97-8.19-2.64-5.14-10.01-6.14-15.22-3.65s-8.75,7.43-12.06,12.17c1.49-8.85,6.06-17.08,6.59-26.04.13-2.21-.02-4.55-1.2-6.42-1.79-2.83-5.42-3.86-8.76-4.13-1.89-.15-3.88-.11-5.58.74-2.55,1.27-3.91,4.07-4.98,6.71-2.4,5.92-4.24,12.07-5.5,18.33.24-3.86.47-7.81-.59-11.53s-3.67-7.23-7.39-8.29c-4.2-1.2-8.84,1.1-11.4,4.64s-3.36,8.08-3.42,12.45.53,8.73.45,13.1c-.01.7-.07,1.46-.52,1.99-.41.47-1.05.66-1.67.79-3.8.8-8.49-.1-10.18-3.59-.7-1.44-.77-3.1-.83-4.7-.19-4.96-.38-9.92-.57-14.87-.12-3.18-.28-6.49-1.85-9.25-2.19-3.85-7.07-5.86-11.39-4.91s-7.85,4.65-8.83,8.97c-.68,3.01-.23,6.14-.21,9.22s-.49,6.41-2.66,8.61c-1.14,1.16-2.64,1.89-3.95,2.85-3.64,2.68-5.64,7.06-6.7,11.46s-1.32,8.94-2.27,13.35c-1.12,5.19-3.2,10.13-4.61,15.25-1.2,4.35-1.96,9.04-1.1,13.53.19.97.38,1.57.69,1.95Z"/>
  </g>
</svg>